<?xml version="1.0" encoding="UTF-8"?> <svg xmlns="http://www.w3.org/2000/svg" xmlns:xlink="http://www.w3.org/1999/xlink" width="269.999" height="51.795" viewBox="0 0 269.999 51.795"><defs><linearGradient id="linear-gradient" y1="0.5" x2="1" y2="0.5" gradientUnits="objectBoundingBox"><stop offset="0" stop-color="aqua"></stop><stop offset="1" stop-color="#03ff71"></stop></linearGradient></defs><g id="logo" transform="translate(12598.5 14893.999)"><path id="União_1" data-name="União 1" d="M264.1,39.1c-7.949,0-12.325-4.118-12.325-11.583V15.014H247V9.1l.09-.049a14.8,14.8,0,0,0,3.182-2.434A15.122,15.122,0,0,0,254.02.131L254.061,0h6.37V7.662h8.587v7.352h-8.587V26.785c0,3.267,1.529,4.534,5.463,4.534.507,0,1.807-.066,3.909-.245l.2-.016v7.27l-.139.033a23.864,23.864,0,0,1-5.748.744Zm-79.775,0h.016ZM16.12,39.1a16.277,16.277,0,0,1-11.383-4.73A15.657,15.657,0,0,1,0,22.979C0,14.018,7.222,6.993,16.438,6.993a14.691,14.691,0,0,1,13.346,7.572l.082.139-6.043,4.689-.107-.163c-2.069-3-4.269-4.329-7.147-4.329-4.514,0-7.794,3.406-7.794,8.087s3.28,8.152,7.794,8.152c2.838,0,5.046-1.315,7.147-4.272l.107-.155,6.043,4.623-.082.138A14.9,14.9,0,0,1,16.438,39.1ZM166.984,21.451V0h8.644V22.064c0,5.555,3.337,9.01,8.709,9.01s8.709-3.366,8.709-9.01V0h8.644V21.451c0,10.387-7.135,17.649-17.354,17.652C173.956,39.1,166.984,32.01,166.984,21.451ZM35.3,34.275a15.634,15.634,0,0,1-4.653-11.288A15.31,15.31,0,0,1,35.264,11.8a16.328,16.328,0,0,1,11.817-4.8A16.592,16.592,0,0,1,59.012,11.9a15.2,15.2,0,0,1,4.564,11.085,15.3,15.3,0,0,1-4.653,11.191,16.508,16.508,0,0,1-11.588,4.868h-.319l-.3,0A16.258,16.258,0,0,1,35.3,34.275ZM39.41,23.044c0,4.721,3.223,8.03,7.671,8.03s7.67-3.455,7.67-8.03-3.3-8.152-7.67-8.152C42.64,14.892,39.41,18.323,39.41,23.044ZM236.135,38.368V7.662h8.644V38.368Zm-11.6,0v-17.9c0-3.406-2.192-5.7-5.462-5.7a5.41,5.41,0,0,0-5.585,5.7v17.9h-8.644V7.662h7.974V10.17a12.705,12.705,0,0,1,8.709-3.185c7.041,0,11.6,4.861,11.6,12.375V38.368Zm-60.532,0h-8.644V20.536c0-3.463-2.044-5.7-5.217-5.7a5.225,5.225,0,0,0-5.4,5.514v18.02H136.1V20.536c0-3.463-2.044-5.7-5.218-5.7s-5.4,2.239-5.4,5.7V38.368h-8.644V7.662h7.974V10.1a11.912,11.912,0,0,1,8.407-3.1,10.568,10.568,0,0,1,9.036,4.24,13.5,13.5,0,0,1,10.108-4.24c7.081,0,11.653,4.861,11.653,12.375v19Zm-50.7,0h-8.644V20.536c0-3.463-2.044-5.7-5.218-5.7a5.225,5.225,0,0,0-5.4,5.514v18.02H85.394V20.536c0-3.463-2.045-5.7-5.218-5.7s-5.4,2.239-5.4,5.7V38.368H66.135V7.662h7.974V10.1a11.91,11.91,0,0,1,8.407-3.1,10.569,10.569,0,0,1,9.036,4.24,13.5,13.5,0,0,1,10.107-4.24c7.082,0,11.654,4.861,11.654,12.375v19Z" transform="translate(-12598.5 -14881.307)"></path><path id="Caminho_60751" data-name="Caminho 60751" d="M260.024,0c-5.57,0-9.074,3.757-9.074,8.911s3.5,8.911,9.074,8.911h11.042v-4.3H259.705c-3.055,0-4.778-1.846-4.778-4.615S256.642,4.3,259.705,4.3h11.361V0Zm13.664,0V4.3h11.361c3.055,0,4.778,1.911,4.778,4.615s-1.715,4.615-4.778,4.615H273.688v4.3H284.73c5.57,0,9.074-3.822,9.074-8.911S290.3,0,284.73,0Z" transform="translate(-12644.736 -14893.847)" fill="url(#linear-gradient)"></path><path id="Caminho_60751_-_Contorno" data-name="Caminho 60751 - Contorno" d="M260.025-.15h11.193V4.4H259.706c-2.9,0-4.627,1.652-4.627,4.42s1.73,4.42,4.627,4.42h11.511V17.8H260.025a9.275,9.275,0,0,1-6.733-2.542A8.96,8.96,0,0,1,250.8,8.823a8.96,8.96,0,0,1,2.492-6.431A9.275,9.275,0,0,1,260.025-.15Zm10.891.3H260.025c-5.337,0-8.923,3.486-8.923,8.675s3.586,8.675,8.923,8.675h10.891V13.542h-11.21c-3.04,0-4.929-1.808-4.929-4.719A4.662,4.662,0,0,1,256.062,5.4a5.055,5.055,0,0,1,3.644-1.3h11.21Zm2.622-.3h11.193a9.251,9.251,0,0,1,6.733,2.567,8.956,8.956,0,0,1,2.492,6.407,8.956,8.956,0,0,1-2.492,6.407,9.251,9.251,0,0,1-6.733,2.567H273.538V13.244H285.05c2.854,0,4.627-1.694,4.627-4.42S287.9,4.4,285.05,4.4H273.538ZM284.731,17.5c5.254,0,8.923-3.567,8.923-8.675S289.985.149,284.731.149H273.84V4.1h11.21a5.024,5.024,0,0,1,3.641,1.325,4.653,4.653,0,0,1,1.288,3.394,4.656,4.656,0,0,1-1.284,3.394,5.025,5.025,0,0,1-3.644,1.325H273.84V17.5Z" transform="translate(-12644.737 -14893.848)" fill="#fff"></path></g></svg> 